<svg xmlns="http://www.w3.org/2000/svg" viewBox="0 0 123.32813 42.28223"><defs><style>.cls-1{fill:#f0f0f0;}.cls-2{fill:#dcdcdc;}.cls-3{fill:#262626;}.cls-4{fill:#ee4c2c;}</style></defs><g id="mpi4torch"><path class="cls-1" d="M29.63531,23.80856V15.229c0-2.3999-.86963-3.27-2.63965-3.27a5.051,5.051,0,0,0-3.48,1.56006V23.80856h-2.46V15.229c0-2.3999-.86963-3.27-2.63965-3.27a4.96323,4.96323,0,0,0-3.48,1.41016V23.80856h-2.46V10.00925l2.46-.39014v1.89014a6.19184,6.19184,0,0,1,4.40967-1.89014,3.74443,3.74443,0,0,1,3.6001,2.27978,6.89326,6.89326,0,0,1,4.97949-2.27978c2.52,0,4.16992,1.77,4.16992,4.7998v9.38965Z" transform="translate(-2.12994 -3.49948)"/><path class="cls-1" d="M42.5357,9.61911c3.86963,0,6.11963,3.12012,6.11963,7.25977,0,4.16992-2.87988,7.37988-6.98975,7.37988a12.93685,12.93685,0,0,1-2.96972-.36035v6.8999h-2.46V10.00925l2.46-.39014v1.71A5.52545,5.52545,0,0,1,42.5357,9.61911ZM38.69586,21.0488a4.74474,4.74474,0,0,0,3.06006.98974c2.78955,0,4.34961-2.27978,4.34961-5.09961,0-3.02978-1.52979-5.04-4.07959-5.04a4.99462,4.99462,0,0,0-3.33008,1.32032Z" transform="translate(-2.12994 -3.49948)"/><path class="cls-1" d="M53.24566,7.039A1.59737,1.59737,0,0,1,51.62555,5.2695a1.62646,1.62646,0,1,1,3.24023,0A1.59737,1.59737,0,0,1,53.24566,7.039Zm-1.23,16.76953V10.00925l2.46-.39014V23.80856Z" transform="translate(-2.12994 -3.49948)"/><path class="cls-2" d="M24.336,31.54733V22.96774c0-2.3999-.86962-3.27-2.63964-3.27a5.051,5.051,0,0,0-3.48,1.56006V31.54733h-2.46V22.96774c0-2.3999-.86962-3.27-2.63964-3.27a4.96319,4.96319,0,0,0-3.48,1.41016V31.54733h-2.46V17.748l2.46-.39014V19.248a6.1918,6.1918,0,0,1,4.40966-1.89014,3.74442,3.74442,0,0,1,3.6001,2.27978A6.89328,6.89328,0,0,1,22.626,17.35788c2.52,0,4.16993,1.77,4.16993,4.7998v9.38965Z" transform="translate(-2.12994 -3.49948)"/><path class="cls-2" d="M37.23638,17.35788c3.86963,0,6.11963,3.12012,6.11963,7.25976,0,4.16993-2.87988,7.37989-6.98974,7.37989a12.93693,12.93693,0,0,1-2.96973-.36035v6.8999h-2.46V17.748l2.46-.39014v1.71A5.52548,5.52548,0,0,1,37.23638,17.35788ZM33.39654,28.78757a4.74474,4.74474,0,0,0,3.06006.98974c2.78955,0,4.34961-2.27978,4.34961-5.09961,0-3.02978-1.52979-5.04-4.07959-5.04A4.99462,4.99462,0,0,0,33.39654,20.958Z" transform="translate(-2.12994 -3.49948)"/><path class="cls-2" d="M47.94635,14.7778a1.59737,1.59737,0,0,1-1.62012-1.76953,1.62646,1.62646,0,1,1,3.24023,0A1.59737,1.59737,0,0,1,47.94635,14.7778Zm-1.23,16.76953V17.748l2.46-.39014V31.54733Z" transform="translate(-2.12994 -3.49948)"/><path class="cls-3" d="M19.28912,38.792V30.21237c0-2.3999-.86963-3.27-2.63965-3.27a5.051,5.051,0,0,0-3.48,1.56006V38.792h-2.46V30.21237c0-2.3999-.86963-3.27-2.63965-3.27a4.96323,4.96323,0,0,0-3.48,1.41016V38.792h-2.46V24.99264l2.46-.39013v1.89013a6.19185,6.19185,0,0,1,4.40967-1.89013,3.74444,3.74444,0,0,1,3.6001,2.27978,6.89326,6.89326,0,0,1,4.97949-2.27978c2.52,0,4.16992,1.77,4.16992,4.7998V38.792Z" transform="translate(-2.12994 -3.49948)"/><path class="cls-3" d="M32.18951,24.60251c3.86963,0,6.11963,3.12012,6.11963,7.25976,0,4.16993-2.87988,7.37989-6.98975,7.37989a12.93626,12.93626,0,0,1-2.96972-.36036v6.89991h-2.46V24.99264l2.46-.39013v1.71A5.52545,5.52545,0,0,1,32.18951,24.60251ZM28.34967,36.0322a4.74471,4.74471,0,0,0,3.06005.98974c2.78956,0,4.34961-2.27978,4.34961-5.09961,0-3.02978-1.52978-5.04-4.07959-5.04a4.99459,4.99459,0,0,0-3.33007,1.32032Z" transform="translate(-2.12994 -3.49948)"/><path class="cls-3" d="M42.89947,22.02243a1.59738,1.59738,0,0,1-1.62012-1.76953,1.62647,1.62647,0,1,1,3.24024,0A1.59738,1.59738,0,0,1,42.89947,22.02243Zm-1.23,16.76953V24.99264l2.46-.39013V38.792Z" transform="translate(-2.12994 -3.49948)"/><path class="cls-4" d="M56.93951,38.34177l-1.2002,5.96972H53.87945l1.2002-5.96972H45.92974l-.21-1.40967L58.01959,24.15231h1.70947L57.26959,36.602H60.209l-.26953,1.73975Zm.38965-11.30957L48.2398,36.602h7.19971Z" transform="translate(-2.12994 -3.49948)"/><path class="cls-3" d="M67.55914,39.24216c-2.66943,0-4.07959-1.29-3.98975-4.29l.21-7.67969-2.27978-.1499.08984-1.56006,2.28028-.68994.06005-2.96973h2.36963l-.08984,3.1499h4.28955l-.08984,2.21973h-4.29l-.21,7.76953c-.02979,1.29.57031,1.9502,1.80029,1.9502a7.22867,7.22867,0,0,0,2.48975-.51026c.02978,0,.45019,2.16016.45019,2.16016A8.69458,8.69458,0,0,1,67.55914,39.24216Z" transform="translate(-2.12994 -3.49948)"/><path class="cls-3" d="M79.169,39.24216c-3.8999,0-6.62988-2.87989-6.62988-7.31983,0-4.40967,2.81982-7.34961,6.77978-7.34961,3.92969,0,6.59961,2.90967,6.59961,7.34961C85.91851,36.332,83.03863,39.24216,79.169,39.24216Zm.02979-12.44971c-2.73,0-4.23,2.12988-4.23,5.09961,0,2.93994,1.59033,5.12988,4.29,5.12988,2.73,0,4.23-2.09961,4.23-5.06982C83.48883,29.01218,81.89849,26.79245,79.19879,26.79245Z" transform="translate(-2.12994 -3.49948)"/><path class="cls-3" d="M91.73883,38.792h-2.46V24.99264l2.46-.39013V27.0322a4.34384,4.34384,0,0,1,3.83984-2.42969,4.95418,4.95418,0,0,1,2.58008.68994l-.63037,2.31006a4.22376,4.22376,0,0,0-2.18994-.62988c-1.31983,0-2.57959.96-3.59961,2.8496Z" transform="translate(-2.12994 -3.49948)"/><path class="cls-3" d="M106.25836,39.24216c-4.34961,0-6.74951-2.97022-6.74951-7.31983,0-4.37988,2.90966-7.31982,6.92968-7.31982a8.098,8.098,0,0,1,4.43994,1.16992l-.62988,2.25a6.61556,6.61556,0,0,0-3.81006-1.14014c-2.81982,0-4.37988,1.91992-4.37988,5.00977,0,3.18017,1.74023,5.06982,4.31982,5.06982a7.1198,7.1198,0,0,0,3.96-1.13965l.4497,2.27979A8.6756,8.6756,0,0,1,106.25836,39.24216Z" transform="translate(-2.12994 -3.49948)"/><path class="cls-3" d="M122.9981,38.792V30.15231c0-2.37011-.8999-3.17968-2.6997-3.17968a5.59931,5.59931,0,0,0-3.75,1.5V38.792h-2.46V18.57272l2.46-.39013v8.42968a6.53424,6.53424,0,0,1,4.61963-2.00976c2.64013,0,4.29,1.77,4.29,4.73974V38.792Z" transform="translate(-2.12994 -3.49948)"/></g></svg>