<svg xmlns="http://www.w3.org/2000/svg" viewBox="0 0 152.25478 48.38217"><defs><style>.cls-1{fill:none;}.cls-2{fill:#f0f0f0;}.cls-3{fill:#dcdcdc;}.cls-4{fill:#262626;}.cls-5{fill:#ee4c2c;}</style></defs><g id="mpi4torch"><rect class="cls-1" width="152.25478" height="48.38217"/><path class="cls-2" d="M42.63071,23.80856V15.229c0-2.3999-.86963-3.27-2.63965-3.27a5.051,5.051,0,0,0-3.48,1.56006V23.80856h-2.46V15.229c0-2.3999-.86963-3.27-2.63965-3.27a4.96321,4.96321,0,0,0-3.48,1.41016V23.80856h-2.46V10.00925l2.46-.39014v1.89014a6.1918,6.1918,0,0,1,4.40967-1.89014,3.74442,3.74442,0,0,1,3.60009,2.27978,6.8933,6.8933,0,0,1,4.9795-2.27978c2.52,0,4.16992,1.77,4.16992,4.7998v9.38965Z"/><path class="cls-2" d="M55.5311,9.61911c3.86963,0,6.11963,3.12012,6.11963,7.25977,0,4.16992-2.87989,7.37988-6.98975,7.37988a12.93693,12.93693,0,0,1-2.96973-.36035v6.8999h-2.46V10.00925l2.46-.39014v1.71A5.52549,5.52549,0,0,1,55.5311,9.61911ZM51.69125,21.0488a4.74476,4.74476,0,0,0,3.06006.98974c2.78955,0,4.34961-2.27978,4.34961-5.09961,0-3.02978-1.52978-5.04-4.07959-5.04a4.99462,4.99462,0,0,0-3.33008,1.32032Z"/><path class="cls-2" d="M66.24106,7.039A1.59738,1.59738,0,0,1,64.62094,5.2695a1.62647,1.62647,0,1,1,3.24024,0A1.59738,1.59738,0,0,1,66.24106,7.039Zm-1.23,16.76953V10.00925l2.46-.39014V23.80856Z"/><path class="cls-3" d="M37.33139,31.54733V22.96774c0-2.3999-.86963-3.27-2.63965-3.27a5.051,5.051,0,0,0-3.48,1.56006V31.54733h-2.46V22.96774c0-2.3999-.86963-3.27-2.63965-3.27a4.96323,4.96323,0,0,0-3.48,1.41016V31.54733h-2.46V17.748l2.46-.39014V19.248a6.19184,6.19184,0,0,1,4.40967-1.89014,3.74443,3.74443,0,0,1,3.6001,2.27978,6.89326,6.89326,0,0,1,4.97949-2.27978c2.52,0,4.16992,1.77,4.16992,4.7998v9.38965Z"/><path class="cls-3" d="M50.23178,17.35788c3.86963,0,6.11963,3.12012,6.11963,7.25976,0,4.16993-2.87988,7.37989-6.98975,7.37989a12.93685,12.93685,0,0,1-2.96972-.36035v6.8999h-2.46V17.748l2.46-.39014v1.71A5.52545,5.52545,0,0,1,50.23178,17.35788ZM46.39194,28.78757a4.74474,4.74474,0,0,0,3.06006.98974c2.78955,0,4.34961-2.27978,4.34961-5.09961,0-3.02978-1.52979-5.04-4.07959-5.04A4.9946,4.9946,0,0,0,46.39194,20.958Z"/><path class="cls-3" d="M60.94174,14.7778a1.59738,1.59738,0,0,1-1.62012-1.76953,1.62647,1.62647,0,1,1,3.24024,0A1.59737,1.59737,0,0,1,60.94174,14.7778Zm-1.23,16.76953V17.748l2.46-.39014V31.54733Z"/><path class="cls-4" d="M32.28452,38.792V30.21237c0-2.3999-.86963-3.27-2.63965-3.27a5.051,5.051,0,0,0-3.48,1.56006V38.792h-2.46V30.21237c0-2.3999-.86963-3.27-2.63965-3.27a4.96319,4.96319,0,0,0-3.48,1.41016V38.792h-2.46V24.99264l2.46-.39013v1.89013A6.19183,6.19183,0,0,1,21.995,24.60251a3.74442,3.74442,0,0,1,3.6001,2.27978,6.8933,6.8933,0,0,1,4.97949-2.27978c2.52,0,4.16993,1.77,4.16993,4.7998V38.792Z"/><path class="cls-4" d="M45.18491,24.60251c3.86963,0,6.11963,3.12012,6.11963,7.25976,0,4.16993-2.87989,7.37989-6.98975,7.37989a12.93641,12.93641,0,0,1-2.96973-.36036v6.89991h-2.46V24.99264l2.46-.39013v1.71A5.52549,5.52549,0,0,1,45.18491,24.60251ZM41.34506,36.0322a4.74476,4.74476,0,0,0,3.06006.98974c2.78955,0,4.34961-2.27978,4.34961-5.09961,0-3.02978-1.52978-5.04-4.07959-5.04a4.99462,4.99462,0,0,0-3.33008,1.32032Z"/><path class="cls-4" d="M55.89487,22.02243a1.59737,1.59737,0,0,1-1.62012-1.76953,1.62646,1.62646,0,1,1,3.24023,0A1.59737,1.59737,0,0,1,55.89487,22.02243Zm-1.23,16.76953V24.99264l2.46-.39013V38.792Z"/><path class="cls-5" d="M69.93491,38.34177l-1.2002,5.96972H66.87485L68.075,38.34177h-9.1499l-.21-1.40967L71.015,24.15231h1.70948L70.265,36.602h2.93946l-.26953,1.73975Zm.38964-11.30957L61.2352,36.602h7.19971Z"/><path class="cls-4" d="M80.55454,39.24216c-2.66944,0-4.07959-1.29-3.98975-4.29l.21-7.67969-2.27979-.1499.08985-1.56006,2.28027-.68994.06006-2.96973h2.36963l-.08984,3.1499h4.28955l-.08985,2.21973h-4.29l-.21,7.76953c-.02978,1.29.57032,1.9502,1.8003,1.9502a7.22861,7.22861,0,0,0,2.48974-.51026c.02979,0,.4502,2.16016.4502,2.16016A8.69462,8.69462,0,0,1,80.55454,39.24216Z"/><path class="cls-4" d="M92.1644,39.24216c-3.8999,0-6.62988-2.87989-6.62988-7.31983,0-4.40967,2.81982-7.34961,6.77978-7.34961,3.92969,0,6.59961,2.90967,6.59961,7.34961C98.91391,36.332,96.034,39.24216,92.1644,39.24216Zm.02978-12.44971c-2.73,0-4.23,2.12988-4.23,5.09961,0,2.93994,1.59034,5.12988,4.29,5.12988,2.73,0,4.23-2.09961,4.23-5.06982C96.48422,29.01218,94.89389,26.79245,92.19418,26.79245Z"/><path class="cls-4" d="M104.73422,38.792h-2.46V24.99264l2.46-.39013V27.0322a4.34385,4.34385,0,0,1,3.83985-2.42969,4.95414,4.95414,0,0,1,2.58007.68994l-.63037,2.31006a4.22376,4.22376,0,0,0-2.18994-.62988c-1.31982,0-2.57959.96-3.59961,2.8496Z"/><path class="cls-4" d="M119.25375,39.24216c-4.34961,0-6.74951-2.97022-6.74951-7.31983,0-4.37988,2.90967-7.31982,6.92969-7.31982a8.098,8.098,0,0,1,4.43994,1.16992l-.62988,2.25a6.61561,6.61561,0,0,0-3.81006-1.14014c-2.81982,0-4.37988,1.91992-4.37988,5.00977,0,3.18017,1.74023,5.06982,4.31982,5.06982a7.11977,7.11977,0,0,0,3.96-1.13965l.44971,2.27979A8.67561,8.67561,0,0,1,119.25375,39.24216Z"/><path class="cls-4" d="M135.9935,38.792V30.15231c0-2.37011-.8999-3.17968-2.69971-3.17968a5.59935,5.59935,0,0,0-3.75,1.5V38.792h-2.46V18.57272l2.46-.39013v8.42968a6.53428,6.53428,0,0,1,4.61963-2.00976c2.64014,0,4.29,1.77,4.29,4.73974V38.792Z"/></g></svg>